<svg xmlns="http://www.w3.org/2000/svg" width="28" height="32"><path fill="#fcfcfc" d="M0 0h28v32H0z"/><path fill="#d4d4d4" d="M13 1c2.468 1.152 4.048 2.048 6 4 .625 2.625.625 2.625 1 5h3l-.562 1.688c-.514 2.715.011 4.626.562 7.312l-1 3c1.872 2.694 1.872 2.694 4 5l-5 4a517 517 0 0 1-3.5-3.375l-1.969-1.898C14 24 14 24 14 22l-1.875.938L8 25l-2-2 4-5-1.812 1.5C6 21 6 21 3 21l-2 4a250 250 0 0 1-.25-5.75l-.14-3.234C1.082 12.362 2.191 11.278 5 9l3 1 .813-2.812C9.91 4.238 10.624 2.944 13 1"/><path fill="#c2c2c2" d="m22 10 5 2 1 20H7l-2-4c-2.034-1.268-2.034-1.268-4-2l1-8 2 2c2.963-.395 5.383-1.598 8-3l-5 6h3l2-2 3 1 .875 1.813C17.355 26.69 19.423 28.1 22 30l3-4-2.062-2.125C21 21 21 21 21.313 17.813L22 15l-1-2z"/><path fill="#2b2b2b" d="m21 9 2 1-.562 1.688c-.514 2.715.011 4.626.562 7.312l-1 3c1.872 2.694 1.872 2.694 4 5l-5 4c-6.68-5.3-6.68-5.3-7.465-9.469.025-2.215.152-4.339.465-6.531l3 2 1.438-3.437C20 10 20 10 21 9"/><path fill="#e0e0e0" d="m22 10 5 2 1 20h-6l1-1.812c1.208-2.242 1.208-2.242 1-5.188l-1.562-1.812C21 21 21 21 21.375 17.875L22 15l-1-2z"/><path fill="#929292" d="M5 9c2.468 1.152 4.048 2.048 6 4-.163 3.188-.56 4.574-2.875 6.813C6 21 6 21 3 21l-2 4a250 250 0 0 1-.25-5.75l-.14-3.234C1.082 12.362 2.191 11.278 5 9"/><path fill="#d8d8d8" d="M14 24q1.724 1.432 3.438 2.875l1.933 1.617C21 30 21 30 22 32H7c5.875-6.875 5.875-6.875 7-8"/><path fill="#272727" d="M13 1c2.468 1.152 4.048 2.048 6 4 .375 2.938.375 2.938 0 6-2 1.875-2 1.875-4 3L13 4c-2.36 2.36-2.491 3.779-3 7H9c-.25-2.75-.25-2.75 0-6 2-2.375 2-2.375 4-4"/><path fill="#929292" d="m22 10 5 2v13h-1v-5l-1.937-.687C22 18 22 18 21.188 15.563 21 13 21 13 22 10"/><path fill="#101010" d="M5 9c2.468 1.152 4.048 2.048 6 4-.125 2.438-.125 2.438-1 5-2.062 1.813-2.062 1.813-4 3l.063-3.75C6.068 14.336 5.93 11.79 5 9"/><path fill="#5c5c5c" d="m21 9 2 1-.562 1.688c-.513 2.71-.001 4.636.562 7.312l-1 2-4-2c-.37-5.415-.37-5.415 1.5-8.375z"/><path fill="#b4b4b4" d="m12 21 3 1c-1.963 3.534-4.04 6.245-7 9l-3-1 2-4h3l.438-1.937C11 22 11 22 12 21"/><path fill="#060606" d="M14 15c4.526 3.678 8.394 7.41 12 12l-2 1v-2h-2v-2h-2v-2l-1.875-.875C16 20 16 20 14 18z"/><path fill="#9b9b9b" d="m18 11 1 2-1 2 2 1h-2l-1 2-5-3 1-2a70 70 0 0 1 4-1z"/><path fill="#363636" d="m7 13 2 1c.188 2.375.188 2.375 0 5l-3 2q-.061-3.5 0-7z"/><path fill="#121212" d="m21 9 2 1-2 6-3-1c1.875-4.875 1.875-4.875 3-6"/></svg>